<?xml version="1.0" encoding="UTF-8" standalone="no"?>
<!-- Created with Inkscape (http://www.inkscape.org/) -->

<svg
   xmlns:dc="http://purl.org/dc/elements/1.1/"
   xmlns:cc="http://creativecommons.org/ns#"
   xmlns:rdf="http://www.w3.org/1999/02/22-rdf-syntax-ns#"
   xmlns:svg="http://www.w3.org/2000/svg"
   xmlns="http://www.w3.org/2000/svg"
   xmlns:sodipodi="http://sodipodi.sourceforge.net/DTD/sodipodi-0.dtd"
   xmlns:inkscape="http://www.inkscape.org/namespaces/inkscape"
   width="210mm"
   height="297mm"
   viewBox="0 0 210 297"
   version="1.1"
   id="svg8"
   inkscape:version="0.92.1 r"
   sodipodi:docname="story-separator.svg">
  <defs
     id="defs2">
    <marker
       inkscape:stockid="Arrow1Mend"
       orient="auto"
       refY="0.0"
       refX="0.0"
       id="Arrow1Mend"
       style="overflow:visible;"
       inkscape:isstock="true">
      <path
         id="path4501"
         d="M 0.0,0.0 L 5.0,-5.0 L -12.5,0.0 L 5.0,5.0 L 0.0,0.0 z "
         style="fill-rule:evenodd;stroke:#000000;stroke-width:1pt;stroke-opacity:1;fill:#000000;fill-opacity:1"
         transform="scale(0.4) rotate(180) translate(10,0)" />
    </marker>
  </defs>
  <sodipodi:namedview
     id="base"
     pagecolor="#ffffff"
     bordercolor="#666666"
     borderopacity="1.0"
     inkscape:pageopacity="0.0"
     inkscape:pageshadow="2"
     inkscape:zoom="1.4"
     inkscape:cx="334.03937"
     inkscape:cy="766.86953"
     inkscape:document-units="mm"
     inkscape:current-layer="layer1"
     showgrid="false"
     inkscape:window-width="1362"
     inkscape:window-height="729"
     inkscape:window-x="0"
     inkscape:window-y="18"
     inkscape:window-maximized="0" />
  <metadata
     id="metadata5">
    <rdf:RDF>
      <cc:Work
         rdf:about="">
        <dc:format>image/svg+xml</dc:format>
        <dc:type
           rdf:resource="http://purl.org/dc/dcmitype/StillImage" />
        <dc:title></dc:title>
      </cc:Work>
    </rdf:RDF>
  </metadata>
  <g
     inkscape:label="Layer 1"
     inkscape:groupmode="layer"
     id="layer1">
    <g
       id="g5350">
      <path
         style="color:#000000;font-style:normal;font-variant:normal;font-weight:normal;font-stretch:normal;font-size:medium;line-height:normal;font-family:sans-serif;font-variant-ligatures:normal;font-variant-position:normal;font-variant-caps:normal;font-variant-numeric:normal;font-variant-alternates:normal;font-feature-settings:normal;text-indent:0;text-align:start;text-decoration:none;text-decoration-line:none;text-decoration-style:solid;text-decoration-color:#000000;letter-spacing:normal;word-spacing:normal;text-transform:none;writing-mode:lr-tb;direction:ltr;text-orientation:mixed;dominant-baseline:auto;baseline-shift:baseline;text-anchor:start;white-space:normal;shape-padding:0;clip-rule:nonzero;display:inline;overflow:visible;visibility:visible;opacity:1;isolation:auto;mix-blend-mode:normal;color-interpolation:sRGB;color-interpolation-filters:linearRGB;solid-color:#000000;solid-opacity:1;vector-effect:none;fill:#000000;fill-opacity:1;fill-rule:evenodd;stroke:none;stroke-width:0.96499997;stroke-linecap:round;stroke-linejoin:miter;stroke-miterlimit:4;stroke-dasharray:none;stroke-dashoffset:0;stroke-opacity:1;color-rendering:auto;image-rendering:auto;shape-rendering:auto;text-rendering:auto;enable-background:accumulate"
         d="m 138.18359,80.824219 c -0.21118,-0.0014 -0.39873,0.13473 -0.46289,0.335937 -0.72621,2.178619 -1.62491,3.399921 -2.61733,5.045894 -0.99241,1.645974 -2.07852,3.716619 -3.44681,4.921228 -1.36829,1.204608 -2.95194,2.211355 -4.80578,3.065879 -1.85384,0.854524 -3.97788,1.556826 -6.42695,2.152546 -2.51497,0.611749 -5.22558,1.328646 -7.45983,2.608017 -2.23425,1.27937 -3.99213,3.12122 -5.938,4.91378 -1.94586,1.79257 -3.74562,3.80313 -5.39544,5.95446 -1.649814,2.15134 -3.14969,4.44345 -4.495794,6.79913 -0.3368,0.56335 0.523815,1.05485 0.83789,0.47852 1.326594,-2.32154 2.802554,-4.57371 4.421484,-6.68289 1.61893,-2.10918 3.38084,-4.07536 5.27933,-5.82491 1.89849,-1.74955 3.96223,-3.33558 5.96521,-4.42488 2.5172,-1.368948 3.65894,-1.961167 7.01366,-2.883727 2.47625,-0.680978 5.01529,-1.742086 6.93679,-2.641396 1.9215,-0.899309 3.24461,-1.562834 4.68286,-2.830304 1.43825,-1.267471 2.65755,-2.737983 3.70322,-4.44946 1.04568,-1.711477 1.91774,-3.663918 2.66151,-5.895246 0.11004,-0.313014 -0.12134,-0.641128 -0.45313,-0.642578 z"
         id="path12"
         inkscape:connector-curvature="0"
         sodipodi:nodetypes="ccsssssssccssssscccc" />
      <path
         style="fill:#000000;fill-opacity:1;fill-rule:evenodd;stroke:#000000;stroke-width:0.38600001pt;stroke-linejoin:round;stroke-opacity:1"
         d="m 99.468474,113.50892 -0.71816,-2.63326 -0.277187,1.871 -0.560669,1.54027 -0.631539,1.75287 -0.206316,1.65839 1.256782,-1.22686 1.469393,-1.25048 1.044172,-1.20323 1.25678,-1.22686 z"
         id="path5356"
         inkscape:connector-curvature="0"
         sodipodi:nodetypes="ccccccccccc" />
    </g>
  </g>
</svg>
